<?xml version="1.0" standalone="no"?>
<!DOCTYPE svg PUBLIC "-//W3C//DTD SVG 1.1//EN" "http://www.w3.org/Graphics/SVG/1.1/DTD/svg11.dtd" >
<svg xmlns="http://www.w3.org/2000/svg">
<metadata>Generated by IcoMoon</metadata>
<defs>
<font id="TwebIcons-22" horiz-adv-x="1024">
<font-face units-per-em="1024" ascent="960" descent="-64" />
<missing-glyph horiz-adv-x="1024" />
<glyph unicode="&#x20;" horiz-adv-x="512" d="" />
<glyph unicode="&#xe900;" glyph-name="facebook2-fill" d="M704 710.737h-128c-23.565 0-42.667-18.097-42.667-40.421v-121.263h170.667c4.851 0.102 9.455-2.036 12.339-5.735s3.695-8.494 2.167-12.86l-31.573-88.926c-2.91-8.162-10.961-13.679-20.053-13.743h-133.547v-303.159c0-11.162-9.553-20.207-21.333-20.207h-106.667c-11.782 0-21.333 9.045-21.333 20.207v303.159h-64c-11.782 0-21.333 9.050-21.333 20.211v80.841c0 11.163 9.551 20.212 21.333 20.212h64v121.263c0 89.296 76.412 161.684 170.667 161.684h149.333c11.78 0 21.333-9.049 21.333-20.21v-80.842c0-11.162-9.553-20.211-21.333-20.211z" />
<glyph unicode="&#xe901;" glyph-name="filter-line" d="M46.63 849.958c6.991 15.068 22.092 24.709 38.703 24.709h853.333c16.61 0 31.714-9.641 38.703-24.709 6.993-15.069 4.604-32.825-6.123-45.509l-331.247-391.696v-348.753c0-14.788-7.654-28.518-20.237-36.297-12.578-7.774-28.284-8.478-41.51-1.865l-170.667 85.333c-14.455 7.228-23.586 21.999-23.586 38.161v263.42l-331.246 391.696c-10.726 12.684-13.116 30.44-6.124 45.509zM177.294 789.333l281.953-333.41c6.511-7.701 10.086-17.463 10.086-27.55v-252.672l85.333-42.667v295.339c0 10.086 3.575 19.849 10.086 27.55l281.954 333.41h-669.414z" />
<glyph unicode="&#xe902;" glyph-name="map-pin-fill" d="M512 839.11c-81.476 0-159.612-32.965-217.223-91.644s-89.977-138.263-89.977-221.246c0-121.169 77.404-238.746 162.277-329.993 41.651-44.783 83.432-81.442 114.843-106.918 11.691-9.481 21.901-17.378 30.080-23.535 8.179 6.157 18.389 14.054 30.080 23.535 31.411 25.476 73.19 62.135 114.842 106.918 84.873 91.247 162.278 208.823 162.278 329.993 0 82.982-32.367 162.568-89.975 221.246-57.613 58.679-135.748 91.644-217.225 91.644zM512 17.771c-21.299-32.542-21.312-32.538-21.321-32.529l-0.111 0.077-0.256 0.175-0.879 0.606c-0.747 0.516-1.813 1.259-3.179 2.223-2.726 1.924-6.647 4.727-11.588 8.358-9.877 7.266-23.863 17.873-40.589 31.441-33.387 27.076-78.005 66.197-122.755 114.308-87.927 94.532-183.323 231.181-183.323 383.791 0 103.728 40.457 203.21 112.471 276.558s169.686 114.554 271.529 114.554c101.841 0 199.514-41.207 271.531-114.554 72.013-73.348 112.469-172.83 112.469-276.558 0-152.61-95.394-289.259-183.322-383.791-44.749-48.111-89.37-87.232-122.756-114.308-16.725-13.568-30.711-24.175-40.589-31.441-4.941-3.631-8.862-6.434-11.588-8.358-1.365-0.964-2.432-1.707-3.179-2.223l-0.879-0.606-0.337-0.23c-0.013-0.009-0.051-0.034-21.35 32.508zM512 17.771l21.299-32.542c-12.898-8.759-29.722-8.747-42.62 0.013l21.321 32.529zM853.333 525.577c0-271.518-341.333-504.243-341.333-504.243s-341.333 232.725-341.333 504.243c0 92.584 35.962 181.376 99.974 246.844s150.832 102.246 241.359 102.246c90.526 0 177.348-36.779 241.361-102.246 64.009-65.467 99.972-154.26 99.972-246.844zM512 680.727c-83.785 0-151.704-69.464-151.704-155.151s67.919-155.153 151.704-155.153c83.785 0 151.706 69.466 151.706 155.153s-67.921 155.151-151.706 155.151z" />
<glyph unicode="&#xe903;" glyph-name="bookmark-fill" d="M853.333 21.333l-341.333 237.039-341.333-237.039v758.519c0 25.146 10.275 49.263 28.564 67.044s43.095 27.77 68.96 27.77h487.62c25.865 0 50.671-9.99 68.958-27.77 18.291-17.781 28.565-41.898 28.565-67.044v-758.519z" />
<glyph unicode="&#xe904;" glyph-name="linkedin-fill" d="M682.667 618.667c67.895 0 133.009-26.971 181.018-74.981 48.013-48.010 74.982-113.124 74.982-181.019v-298.667h-170.667v298.667c0 22.63-8.99 44.335-24.994 60.339s-37.709 24.994-60.339 24.994c-22.63 0-44.335-8.99-60.339-24.994s-24.994-37.709-24.994-60.339v-298.667h-170.667v298.667c0 67.895 26.97 133.009 74.982 181.019 48.009 48.009 113.122 74.981 181.018 74.981zM256 576h-170.667v-512h170.667v512zM170.667 704c47.128 0 85.333 38.205 85.333 85.333s-38.205 85.333-85.333 85.333c-47.128 0-85.333-38.205-85.333-85.333s38.205-85.333 85.333-85.333z" />
<glyph unicode="&#xe905;" glyph-name="x-circle-fill" d="M128 448c0 212.077 171.924 384 384 384 101.845 0 199.518-40.457 271.531-112.471 72.017-72.014 112.474-169.686 112.474-271.529 0-212.079-171.925-384-384.004-384-212.076 0-384 171.921-384 384zM636.493 363.119c0 5.094-2.103 9.958-5.815 13.44l-71.040 71.424 71.040 71.424c3.712 3.486 5.815 8.35 5.815 13.44 0 5.092-2.103 9.957-5.815 13.441l-20.352 20.352c-3.486 3.712-8.35 5.818-13.44 5.818-5.094 0-9.958-2.106-13.44-5.818l-71.428-71.041-71.424 71.041c-3.482 3.712-8.346 5.818-13.44 5.818-5.090 0-9.954-2.106-13.439-5.818l-20.352-20.352c-3.712-3.484-5.818-8.349-5.818-13.441 0-5.090 2.106-9.954 5.818-13.44l71.039-71.424-71.039-71.424c-3.712-3.482-5.818-8.346-5.818-13.44 0-5.090 2.106-9.954 5.818-13.44l20.352-20.352c3.485-3.712 8.349-5.815 13.439-5.815 5.094 0 9.958 2.103 13.44 5.815l71.424 71.040 71.428-71.040c3.482-3.712 8.346-5.815 13.44-5.815 5.090 0 9.954 2.103 13.44 5.815l20.352 20.352c3.712 3.486 5.815 8.35 5.815 13.44z" />
<glyph unicode="&#xe906;" glyph-name="twitter-fill" d="M937.421 689.745c-22.020-27.824-48.636-52.095-78.818-71.876 0-7.268 0-14.537 0-22.209 0.243-131.993-55.407-258.555-154.479-351.316-99.068-92.762-233.267-143.962-372.514-142.123-80.5-0.252-159.97 17.161-232.184 50.88-3.894 1.609-6.405 5.261-6.39 9.289v4.442c0 5.798 4.959 10.496 11.077 10.496 79.13 2.47 155.437 28.463 218.125 74.3-71.624 1.365-136.067 41.562-165.724 103.373-1.498 3.375-1.032 7.245 1.231 10.214s5.994 4.608 9.846 4.322c21.768-2.074 43.753-0.154 64.756 5.653-79.066 15.548-138.476 77.734-146.979 153.843-0.303 3.652 1.425 7.189 4.557 9.333s7.217 2.586 10.78 1.167c21.218-8.87 44.123-13.542 67.312-13.73-69.281 43.080-99.206 125.019-72.85 199.476 2.72 7.235 9.257 12.58 17.206 14.071s16.14-1.094 21.562-6.802c93.491-94.265 221.948-150.437 358.286-156.672-3.49 13.202-5.21 26.769-5.111 40.38 1.276 71.366 47.885 134.939 118.012 160.959 70.123 26.019 149.879 9.335 201.933-42.243 35.486 6.404 69.79 17.695 101.824 33.515 2.347 1.388 5.321 1.388 7.667 0 1.463-2.224 1.463-5.044 0-7.268-15.518-33.661-41.728-61.893-74.982-80.759 29.12 3.199 57.728 9.707 85.205 19.382 2.317 1.492 5.355 1.492 7.671 0 1.937-0.84 3.383-2.447 3.959-4.392s0.218-4.031-0.977-5.703z" />
<glyph unicode="&#xe907;" glyph-name="mail-fill" d="M888.858 664.375l-245.858-237.704 245.858-237.705c4.446 9.041 7.142 19.034 7.142 29.705v416c0 10.673-2.697 20.665-7.142 29.704zM824.755 704h-668.168c-10.968 0-21.236-2.624-30.525-6.949l314.232-304.241c27.785-27.034 72.969-27.034 100.753 0l314.231 304.241c-9.289 4.325-19.558 6.949-30.524 6.949zM92.474 664.375c-4.444-9.039-7.141-19.031-7.141-29.704v-416c0-10.671 2.697-20.668 7.141-29.705l245.859 237.705-245.859 237.704zM609.421 393.98l-34.79-33.856c-46.293-45.047-121.626-45.047-167.921 0l-34.789 33.856-245.859-237.705c9.289-4.326 19.557-6.95 30.525-6.95h668.168c10.965 0 21.235 2.624 30.524 6.95l-245.858 237.705z" />
<glyph unicode="&#xe908;" glyph-name="phone-fill" d="M834.637 327.812c-47.027-0.017-93.205 7.326-136.964 21.773-21.444 7.305-47.799 0.589-60.881-12.855l-86.349-65.225c-100.177 53.436-161.893 115.093-214.659 214.485l63.253 84.136c16.436 16.423 22.325 40.409 15.253 62.91-14.536 43.982-21.927 90.132-21.942 137.179-0.009 33.987-27.667 61.629-61.652 61.618l-141.061-0.044c-33.985-0.011-61.626-27.669-61.616-61.654 0.121-389.558 317.139-706.379 706.699-706.26 33.984 0.013 61.628 27.669 61.615 61.653l-0.043 140.668c-0.013 33.984-27.669 61.623-61.653 61.615z" />
<glyph unicode="&#xe909;" glyph-name="facebook-fill" d="M853.628 832h-683.255c-23.401 0-42.372-18.971-42.372-42.372v-683.255c0-23.403 18.971-42.372 42.372-42.372h368.111v297.003h-99.972v116.262h99.972v85.538c0 99.178 60.646 153.203 149.099 153.203 29.807 0.065 59.597-1.438 89.246-4.502v-103.68h-60.911c-48.196 0-57.6-22.775-57.6-56.408v-74.018h115.2l-14.963-116.262h-100.898v-297.135h195.972c23.403 0 42.372 18.97 42.372 42.372v683.255c0 23.401-18.97 42.372-42.372 42.372z" />
<glyph unicode="&#xe90a;" glyph-name="heart-fill" d="M870.020 782.791c-81.719 72.319-187.132 62.717-264.149-14.3l-93.973-93.769-93.769 93.769c-77.018 77.018-182.636 86.619-264.147 14.3-20.789-18.46-37.591-40.968-49.379-66.147s-18.311-52.5-19.172-80.288c-0.861-27.789 3.96-55.46 14.167-81.321s25.583-49.366 45.19-69.078l365.066-385.493 7.151 7.356 2.249-2.249 359.957 380.386c19.61 19.712 34.987 43.217 45.193 69.078s15.027 53.532 14.165 81.321c-0.862 27.788-7.386 55.109-19.17 80.288-11.789 25.179-28.591 47.688-49.378 66.147z" />
<glyph unicode="&#xe90b;" glyph-name="paperclip-line" d="M673.28 858.125c-33.971 0-66.551-13.495-90.573-37.518l-392.109-392.105c-40.035-40.034-62.525-94.336-62.525-150.95 0-56.619 22.491-110.916 62.525-150.95s94.333-62.528 150.95-62.528c56.617 0 110.914 22.494 150.948 62.528l392.107 392.107c16.666 16.662 43.678 16.662 60.343 0 16.661-16.661 16.661-43.678 0-60.339l-392.107-392.107c-56.038-56.038-132.043-87.522-211.292-87.522s-155.252 31.484-211.29 87.522c-56.038 56.038-87.519 132.041-87.519 211.29s31.482 155.251 87.519 211.29l392.105 392.106c40.026 40.025 94.315 62.512 150.916 62.512 56.606 0 110.895-22.486 150.921-62.512s62.511-94.312 62.511-150.917c0-56.605-22.485-110.891-62.511-150.917l-392.533-392.105c-24.015-24.013-56.585-37.504-90.545-37.504s-66.53 13.491-90.543 37.504c-24.014 24.013-37.504 56.58-37.504 90.543 0 33.958 13.491 66.53 37.504 90.543l362.26 361.83c16.67 16.653 43.686 16.637 60.339-0.035s16.636-43.687-0.038-60.34l-362.221-361.795c-7.999-8.009-12.511-18.884-12.511-30.204 0-11.328 4.5-22.195 12.511-30.204 8.011-8.013 18.875-12.51 30.204-12.51s22.193 4.497 30.203 12.51l392.532 392.106c24.013 24.021 37.521 56.611 37.521 90.577 0 33.973-13.495 66.554-37.521 90.577-24.021 24.023-56.602 37.518-90.577 37.518z" />
<glyph unicode="&#xe90c;" glyph-name="x-line" d="M798.17 734.17c16.661-16.663 16.661-43.677 0-60.34l-512-512c-16.663-16.661-43.677-16.661-60.34 0s-16.662 43.678 0 60.339l512 512c16.661 16.662 43.678 16.662 60.339 0zM225.83 734.17c16.663 16.662 43.677 16.662 60.34 0l512-512c16.661-16.661 16.661-43.678 0-60.339s-43.678-16.661-60.339 0l-512 512c-16.662 16.663-16.662 43.677 0 60.34z" />
<glyph unicode="&#xe90d;" glyph-name="alert-circle-line" d="M512 832c-212.077 0-384-171.923-384-384 0-212.079 171.923-384 384-384 212.079 0 384 171.921 384 384 0 212.077-171.921 384-384 384zM42.667 448c0 259.206 210.128 469.333 469.333 469.333 259.204 0 469.333-210.128 469.333-469.333 0-259.204-210.129-469.333-469.333-469.333-259.206 0-469.333 210.129-469.333 469.333zM512 661.333c23.565 0 42.667-19.103 42.667-42.667v-170.667c0-23.565-19.102-42.667-42.667-42.667s-42.667 19.102-42.667 42.667v170.667c0 23.564 19.102 42.667 42.667 42.667zM469.333 277.333c0 23.565 19.102 42.667 42.667 42.667h0.427c23.565 0 42.667-19.102 42.667-42.667s-19.102-42.667-42.667-42.667h-0.427c-23.565 0-42.667 19.102-42.667 42.667z" />
<glyph unicode="&#xe90e;" glyph-name="search-line" d="M469.333 789.333c-164.949 0-298.667-133.718-298.667-298.667s133.718-298.667 298.667-298.667c164.949 0 298.667 133.717 298.667 298.667s-133.717 298.667-298.667 298.667zM85.333 490.667c0 212.077 171.923 384 384 384 212.079 0 384-171.923 384-384 0-212.079-171.921-384-384-384-212.077 0-384 171.921-384 384zM680.226 279.774c16.661 16.661 43.678 16.661 60.339 0l185.6-185.6c16.661-16.661 16.661-43.678 0-60.339s-43.678-16.661-60.339 0l-185.6 185.6c-16.661 16.661-16.661 43.678 0 60.339z" />
<glyph unicode="&#xe90f;" glyph-name="heart-line" d="M506.884 746.067c48.845 52.712 117.274 83.71 189.7 85.933 128.047 0 231.855-102.224 231.855-228.324 0-149.293-168.529-312.911-269.602-411.040-9.101-8.832-17.651-17.139-25.485-24.853l-96.115-94.647c-5.922-5.841-13.961-9.126-22.345-9.135h-16.017c-8.384 0.009-16.418 3.294-22.34 9.135l-96.116 94.647c-7.834 7.714-16.387 16.021-25.487 24.853-101.073 98.129-269.6 261.747-269.6 411.040 0 126.1 103.805 228.324 231.854 228.324 72.427-2.223 140.857-33.221 189.697-85.933zM506.893 160.734l92.74 90.082c85.577 83.025 244.501 238.289 244.501 352.865 0 38.752-15.718 75.899-43.661 103.183-27.947 27.284-65.801 42.446-105.148 42.114-65.54-5.992-124.698-41.161-160.61-95.481-4.023-5.176-10.244-8.239-16.862-8.303h-18.974c-9.847 0.026-19.153 4.455-25.293 12.039-35.341 52.318-92.848 86.052-156.394 91.745-81.486 0-147.543-65.052-147.543-145.297 0-114.576 158.925-269.84 244.5-352.865l92.743-90.082z" />
<glyph unicode="&#xe910;" glyph-name="chevron-line" d="M304.94 834.688c25.049 24.938 65.571 24.848 90.509-0.201l337.415-338.918c12.066-12.117 18.778-28.561 18.641-45.658-0.132-17.101-7.104-33.434-19.358-45.359l-346.176-336.917c-25.33-24.653-65.849-24.102-90.502 1.229-24.652 25.327-24.103 65.847 1.227 90.5l299.788 291.767-291.746 293.047c-24.938 25.049-24.848 65.571 0.201 90.509z" />
<glyph unicode="&#xe911;" glyph-name="mail-line" d="M858.667 789.333h-725.333c-50.074 0-90.667-38.456-90.667-85.895v-515.368c0-47.441 40.593-85.897 90.667-85.897h725.333c50.074 0 90.667 38.455 90.667 85.897v515.368c0 47.439-40.593 85.895-90.667 85.895zM858.667 703.437v-124.547l-333.201-221.177c-17.719-11.652-41.212-11.652-58.931 0l-333.201 221.177v124.547h725.333zM133.333 488.704l287.866-190.69c44.925-29.747 104.675-29.747 149.599 0l287.868 190.69v-300.638h-725.333v300.638z" />
<glyph unicode="&#xe912;" glyph-name="instagram-line" d="M320 789.333c-82.475 0-149.333-66.859-149.333-149.333v-384c0-82.475 66.859-149.333 149.333-149.333h384c82.475 0 149.333 66.859 149.333 149.333v384c0 82.475-66.859 149.333-149.333 149.333h-384zM85.333 640c0 129.603 105.064 234.667 234.667 234.667h384c129.604 0 234.667-105.064 234.667-234.667v-384c0-129.604-105.062-234.667-234.667-234.667h-384c-129.603 0-234.667 105.062-234.667 234.667v384zM529.933 559.404c-23.078 3.423-46.652-0.52-67.362-11.266s-37.507-27.75-47.997-48.592c-10.49-20.843-14.142-44.463-10.435-67.499s14.583-44.318 31.083-60.817c16.499-16.499 37.781-27.375 60.817-31.083s46.656-0.055 67.499 10.432c20.843 10.492 37.845 27.29 48.593 48s14.69 44.284 11.264 67.362c-3.49 23.543-14.46 45.342-31.292 62.17-16.828 16.831-38.626 27.802-62.17 31.293zM423.268 623.881c36.644 19.014 78.347 25.988 119.183 19.933 41.655-6.177 80.218-25.586 109.995-55.362 29.773-29.776 49.182-68.337 55.36-109.993 6.054-40.836-0.917-82.539-19.934-119.185-19.012-36.642-49.097-66.355-85.969-84.915-36.877-18.56-78.665-25.020-119.42-18.462-40.759 6.558-78.411 25.801-107.602 54.993-29.191 29.188-48.434 66.842-54.993 107.601-6.558 40.755-0.098 82.543 18.462 119.418s48.275 66.958 84.918 85.971zM680.521 659.209c0 23.564 19.102 42.667 42.667 42.667h0.384c23.565 0 42.667-19.103 42.667-42.667s-19.102-42.667-42.667-42.667h-0.384c-23.565 0-42.667 19.102-42.667 42.667z" />
<glyph unicode="&#xe913;" glyph-name="thumbs-up-line" d="M430.345 891.995l-159.406-358.662h-100.272c-33.948 0-66.505-13.487-90.51-37.491s-37.49-56.563-37.49-90.509v-298.667c0-33.95 13.486-66.505 37.49-90.509s56.562-37.491 90.51-37.491h609.058c30.775-0.286 60.629 10.53 84.087 30.468 23.509 19.985 39.019 47.825 43.652 78.336 0 0.009 0-0.013 0 0l58.88 383.991c2.782 18.347 1.545 37.077-3.627 54.899-5.175 17.818-14.161 34.299-26.334 48.301-12.177 14.002-27.251 25.19-44.181 32.787-16.845 7.561-35.132 11.387-53.594 11.217h-198.609v128c0 45.264-17.98 88.673-49.988 120.68-32.004 32.006-75.413 49.987-120.678 49.987-16.862 0-32.141-9.93-38.989-25.338zM341.333 481.613l153.933 346.351c12.86-4.102 24.687-11.236 34.406-20.957 16.004-16.003 24.994-37.708 24.994-60.34v-170.667c0-23.564 19.102-42.667 42.667-42.667l241.975 0.003c6.187 0.070 12.314-1.206 17.954-3.736 5.645-2.534 10.667-6.263 14.729-10.931 4.058-4.668 7.053-10.159 8.777-16.102 1.724-5.931 2.138-12.169 1.212-18.278 0 0.004 0-0.009 0 0l-58.884-384.026c-1.545-10.172-6.711-19.447-14.549-26.112-7.842-6.665-17.826-10.27-28.117-10.155l-439.095 0.004v417.613zM256 64h-85.333c-11.316 0-22.168 4.497-30.17 12.497s-12.497 18.854-12.497 30.17v298.667c0 11.315 4.495 22.17 12.497 30.17s18.854 12.497 30.17 12.497h85.333v-384z" />
<glyph unicode="&#xe914;" glyph-name="book-open-fill" d="M85.333 832h256c45.264 0 88.674-17.981 120.678-49.987 32.009-32.006 49.988-75.416 49.988-120.68v-597.333c0 33.946-13.487 66.505-37.491 90.509s-56.561 37.491-90.509 37.491h-298.667v640zM938.667 832h-256c-45.265 0-88.674-17.981-120.678-49.987-32.009-32.006-49.988-75.416-49.988-120.68v-597.333c0 33.946 13.487 66.505 37.491 90.509s56.563 37.491 90.509 37.491h298.667v640z" />
<glyph unicode="&#xe915;" glyph-name="map-fill" d="M78.719 706.86l244.844 139.91v-86.817l-188.455-107.689v-516.21l188.455 107.686v-86.814l-207.445-118.541c-11.665-6.669-25.996-6.618-37.616 0.124-11.62 6.746-18.772 19.162-18.772 32.597v603.029c0 13.525 7.247 26.013 18.99 32.723zM625.062 132.096l-226.121 113.058v-84.275l226.121-113.058v84.275zM625.062 650.847l-226.121 113.061v84.276l226.121-113.061v-84.276zM700.442 136.051l188.45 107.686v516.211l-188.45-107.686v86.215c0 0.201-0.004 0.4-0.004 0.599l207.445 118.541c11.665 6.666 25.997 6.618 37.615-0.125 11.622-6.743 18.773-19.163 18.773-32.598v-603.028c0-13.525-7.249-26.014-18.991-32.725l-244.838-139.908v86.818zM97.417 674.139l226.146 129.226v-603.028l-226.146-129.225v603.026zM625.062 89.958l-226.121 113.058v603.029l226.121-113.061v-603.027zM700.442 92.646l226.138 129.22v603.029l-226.138-129.222v-603.027z" />
<glyph unicode="&#xe916;" glyph-name="align-justify-line" d="M85.333 533.333c0 23.564 19.103 42.667 42.667 42.667h768c23.565 0 42.667-19.103 42.667-42.667s-19.102-42.667-42.667-42.667h-768c-23.564 0-42.667 19.102-42.667 42.667zM85.333 704c0 23.564 19.103 42.667 42.667 42.667h768c23.565 0 42.667-19.103 42.667-42.667s-19.102-42.667-42.667-42.667h-768c-23.564 0-42.667 19.103-42.667 42.667zM85.333 362.667c0 23.565 19.103 42.667 42.667 42.667h768c23.565 0 42.667-19.102 42.667-42.667s-19.102-42.667-42.667-42.667h-768c-23.564 0-42.667 19.102-42.667 42.667zM85.333 192c0 23.565 19.103 42.667 42.667 42.667h768c23.565 0 42.667-19.102 42.667-42.667s-19.102-42.667-42.667-42.667h-768c-23.564 0-42.667 19.102-42.667 42.667z" />
</font>
</defs>
</svg>
