<svg width="24" height="25" viewBox="0 0 24 25" fill="none" xmlns="http://www.w3.org/2000/svg">
<g id="calendar - line">
<path id="Vector (Stroke)" fill-rule="evenodd" clip-rule="evenodd" d="M5 5.5C4.44772 5.5 4 5.94772 4 6.5V20.5C4 21.0523 4.44772 21.5 5 21.5H19C19.5523 21.5 20 21.0523 20 20.5V6.5C20 5.94772 19.5523 5.5 19 5.5H5ZM2 6.5C2 4.84315 3.34315 3.5 5 3.5H19C20.6569 3.5 22 4.84315 22 6.5V20.5C22 22.1569 20.6569 23.5 19 23.5H5C3.34315 23.5 2 22.1569 2 20.5V6.5Z" fill="#2C333A"/>
<path id="Vector (Stroke)_2" fill-rule="evenodd" clip-rule="evenodd" d="M16 1.5C16.5523 1.5 17 1.94772 17 2.5V6.5C17 7.05229 16.5523 7.5 16 7.5C15.4477 7.5 15 7.05229 15 6.5V2.5C15 1.94772 15.4477 1.5 16 1.5Z" fill="#2C333A"/>
<path id="Vector (Stroke)_3" fill-rule="evenodd" clip-rule="evenodd" d="M8 1.5C8.55228 1.5 9 1.94772 9 2.5V6.5C9 7.05229 8.55228 7.5 8 7.5C7.44772 7.5 7 7.05229 7 6.5V2.5C7 1.94772 7.44772 1.5 8 1.5Z" fill="#2C333A"/>
<path id="Vector (Stroke)_4" fill-rule="evenodd" clip-rule="evenodd" d="M2.5 9.5H21.5V14.5H2.5V9.5Z" fill="#2C333A"/>
</g>
</svg>
